<svg width="17" height="17" viewBox="0 0 17 17" fill="none" xmlns="http://www.w3.org/2000/svg">
<path d="M16.4001 8.34894C16.4001 8.48155 16.3474 8.60873 16.2537 8.7025C16.1599 8.79626 16.0327 8.84894 15.9001 8.84894H7.2881C7.15549 8.84894 7.02831 8.79626 6.93455 8.7025C6.84078 8.60873 6.7881 8.48155 6.7881 8.34894C6.7881 8.21633 6.84078 8.08916 6.93455 7.99539C7.02831 7.90162 7.15549 7.84894 7.2881 7.84894H15.9001C16.0327 7.84894 16.1599 7.90162 16.2537 7.99539C16.3474 8.08916 16.4001 8.21633 16.4001 8.34894ZM7.2881 2.79994H15.9001C16.0327 2.79994 16.1599 2.74726 16.2537 2.6535C16.3474 2.55973 16.4001 2.43255 16.4001 2.29994C16.4001 2.16733 16.3474 2.04016 16.2537 1.94639C16.1599 1.85262 16.0327 1.79994 15.9001 1.79994H7.2881C7.15549 1.79994 7.02831 1.85262 6.93455 1.94639C6.84078 2.04016 6.7881 2.16733 6.7881 2.29994C6.7881 2.43255 6.84078 2.55973 6.93455 2.6535C7.02831 2.74726 7.15549 2.79994 7.2881 2.79994ZM15.9001 13.8999H7.2881C7.15549 13.8999 7.02831 13.9526 6.93455 14.0464C6.84078 14.1402 6.7881 14.2673 6.7881 14.3999C6.7881 14.5325 6.84078 14.6597 6.93455 14.7535C7.02831 14.8473 7.15549 14.8999 7.2881 14.8999H15.9001C16.0327 14.8999 16.1599 14.8473 16.2537 14.7535C16.3474 14.6597 16.4001 14.5325 16.4001 14.3999C16.4001 14.2673 16.3474 14.1402 16.2537 14.0464C16.1599 13.9526 16.0327 13.8999 15.9001 13.8999ZM2.8501 6.09994C2.40509 6.09994 1.97008 6.2319 1.60007 6.47914C1.23005 6.72637 0.941667 7.07777 0.77137 7.4889C0.601073 7.90004 0.556515 8.35244 0.643332 8.78889C0.730149 9.22535 0.94444 9.62626 1.25911 9.94093C1.57378 10.2556 1.97469 10.4699 2.41115 10.5567C2.8476 10.6435 3.3 10.599 3.71114 10.4287C4.12227 10.2584 4.47367 9.96999 4.72091 9.59997C4.96814 9.22996 5.1001 8.79495 5.1001 8.34994C5.09931 7.75345 4.862 7.18161 4.44021 6.75983C4.01843 6.33804 3.44659 6.10074 2.8501 6.09994V6.09994ZM4.3901 0.529942L2.3401 2.94894L1.5001 1.84894C1.4607 1.79641 1.41134 1.75216 1.35485 1.71871C1.29835 1.68525 1.23581 1.66325 1.17081 1.65397C1.10581 1.64468 1.03961 1.64829 0.976008 1.66459C0.912402 1.68088 0.852627 1.70955 0.800099 1.74894C0.695549 1.82962 0.626603 1.9479 0.607928 2.07863C0.589252 2.20936 0.62232 2.34222 0.700098 2.44894L1.9201 4.04894C1.96649 4.10881 2.02546 4.15776 2.09286 4.19232C2.16025 4.22688 2.23441 4.24621 2.3101 4.24894H2.3201C2.3924 4.24663 2.46345 4.22945 2.52883 4.19848C2.5942 4.16751 2.6525 4.12342 2.7001 4.06894L5.1501 1.16894C5.21807 1.06665 5.24602 0.942927 5.22861 0.821354C5.21121 0.69978 5.14967 0.588865 5.05573 0.509756C4.96179 0.430648 4.84202 0.388881 4.71926 0.39242C4.59649 0.395958 4.47933 0.444554 4.3901 0.528942V0.529942ZM2.8501 12.1489C2.40513 12.1489 1.97016 12.2809 1.60017 12.5281C1.23018 12.7753 0.941792 13.1266 0.771466 13.5377C0.601139 13.9487 0.556523 14.4011 0.643259 14.8375C0.729995 15.274 0.944187 15.6749 1.25876 15.9896C1.57332 16.3043 1.97414 16.5187 2.41053 16.6056C2.84692 16.6925 3.29929 16.6481 3.71044 16.478C4.1216 16.3078 4.47307 16.0196 4.72042 15.6497C4.96777 15.2798 5.0999 14.8449 5.1001 14.3999C5.09957 13.8033 4.86238 13.2312 4.44056 12.8092C4.01875 12.3872 3.44677 12.1497 2.8501 12.1489V12.1489Z" fill="#BFBFBF"/>
</svg>
