<svg width="23" height="24" viewBox="0 0 23 24" fill="none" xmlns="http://www.w3.org/2000/svg">
<g clip-path="url(#clip0_2_472)">
<path d="M11.3916 1.3302C5.12177 1.3302 0.0332031 6.20389 0.0332031 12.209C0.0332031 18.214 5.12177 23.0877 11.3916 23.0877C17.6615 23.0877 22.75 18.214 22.75 12.209C22.75 6.20389 17.6615 1.3302 11.3916 1.3302ZM11.3916 4.59383C13.2771 4.59383 14.7991 6.05159 14.7991 7.85746C14.7991 9.66334 13.2771 11.1211 11.3916 11.1211C9.50612 11.1211 7.98409 9.66334 7.98409 7.85746C7.98409 6.05159 9.50612 4.59383 11.3916 4.59383ZM11.3916 20.0417C8.55201 20.0417 6.0418 18.6492 4.57657 16.5387C4.61064 14.3738 9.11993 13.1881 11.3916 13.1881C13.6519 13.1881 18.1726 14.3738 18.2067 16.5387C16.7414 18.6492 14.2312 20.0417 11.3916 20.0417Z" fill="black"/>
</g>
<defs>
<clipPath id="clip0_2_472">
<rect width="22.7168" height="22.1759" fill="white" transform="translate(0.0332031 0.911743)"/>
</clipPath>
</defs>
</svg>
