<svg width="25" height="26" viewBox="0 0 25 26" fill="none" xmlns="http://www.w3.org/2000/svg">
<path fill-rule="evenodd" clip-rule="evenodd" d="M5.13871 0.687088C4.95401 0.74061 4.79507 0.791733 4.78547 0.800709C4.7636 0.821159 5.54765 3.91453 5.59351 3.98879C5.61807 4.02854 5.71666 4.02134 5.95865 3.96215C6.14095 3.91761 6.30843 3.86466 6.33083 3.84455C6.36125 3.81728 5.74434 1.2552 5.56554 0.666159C5.53527 0.566457 5.55916 0.565257 5.13871 0.687088ZM17.2154 0.752611C17.0459 0.871369 17.0187 0.962382 16.8925 1.83022C16.8268 2.28197 16.7506 2.69359 16.7231 2.74495C16.6377 2.90456 16.4564 2.99423 16.292 2.95808C16.1703 2.93135 16.0434 2.79219 15.5922 2.19072C15.0096 1.41409 14.8809 1.30565 14.6473 1.39455C14.5769 1.42133 14.2437 1.65146 13.9069 1.90597L13.2944 2.36876L12.8589 2.3413C11.592 2.26157 10.2091 2.5575 9.01281 3.16454C8.25274 3.55015 7.66913 3.97535 7.0577 4.58887C5.78771 5.86315 5.04214 7.39227 4.8192 9.17973C4.76288 9.63124 4.75434 9.65462 4.64582 9.65462C4.58302 9.65462 4.47268 9.71405 4.40062 9.78663C4.2899 9.89819 4.24792 10.0247 4.12985 10.6027C4.05295 10.9789 3.9725 11.2867 3.95096 11.2867C3.92946 11.2867 3.65898 11.1092 3.34988 10.8923C2.54185 10.3251 2.60685 10.3122 1.70618 11.219C1.1005 11.8287 0.988908 11.9635 0.988908 12.0856C0.988908 12.1882 1.10712 12.4027 1.39669 12.8256C1.62097 13.1531 1.80448 13.4329 1.80448 13.4473C1.80448 13.4618 1.49686 13.5365 1.12084 13.6134C0.543224 13.7316 0.416763 13.7736 0.30527 13.8844L0.17334 14.0155V14.9589V15.9023L0.30527 16.0335C0.416523 16.1442 0.542408 16.1863 1.10884 16.3021C1.47825 16.3776 1.78984 16.4469 1.80131 16.456C1.81273 16.4651 1.63201 16.7519 1.39971 17.0933C1.02115 17.6495 0.980369 17.7305 1.00714 17.8732C1.03017 17.9959 1.194 18.1892 1.72258 18.7172C2.61112 19.6047 2.54141 19.5906 3.33693 19.0424C3.66522 18.8162 3.94649 18.6311 3.96199 18.6311C3.97744 18.6311 4.05295 18.9389 4.12985 19.3151C4.24792 19.8931 4.2899 20.0196 4.40062 20.1312L4.53164 20.2632H5.47453H6.41743L6.54845 20.1312C6.65917 20.0196 6.70115 19.8931 6.81921 19.3151C6.89612 18.9389 6.97163 18.6311 6.98708 18.6311C7.00257 18.6311 7.28385 18.8162 7.61214 19.0424C8.3593 19.5573 8.38323 19.5576 8.88495 19.0589L9.23023 18.7157L9.24913 19.4775C9.26525 20.1288 9.28295 20.2721 9.37113 20.4664C9.50574 20.7628 9.68522 20.9948 9.88695 21.1331L10.0495 21.2445L10.0648 22.5659L10.0801 23.8874L10.2145 24.1754C10.3891 24.5497 10.6687 24.8309 11.034 24.9994C11.3215 25.1321 11.3479 25.1352 12.3326 25.1515C13.4306 25.1696 13.7957 25.127 14.11 24.9442C14.3989 24.7762 14.6603 24.4941 14.8002 24.1994C14.9246 23.9373 14.9256 23.9257 14.9414 22.5913L14.9571 21.2472L15.1466 21.1147C15.2508 21.0418 15.401 20.8798 15.4803 20.7547C15.7306 20.3598 15.7651 20.1552 15.7651 19.0645C15.7651 17.4724 15.907 17.1412 16.8868 16.4477C17.5321 15.991 17.6576 15.8762 17.6068 15.7893C17.5834 15.7492 17.4659 15.6077 17.3458 15.475L17.1275 15.2338L16.962 15.3726C16.871 15.4489 16.5954 15.6555 16.3496 15.8317C15.6519 16.3317 15.3025 16.7737 15.0853 17.431C14.995 17.7044 14.9787 17.8922 14.9539 18.947L14.9255 20.1509L14.7911 20.3271C14.5383 20.6585 14.588 20.6519 12.4662 20.6368L10.5598 20.6232L10.4032 20.5114C10.098 20.2936 10.083 20.2238 10.052 18.8711C10.0206 17.497 9.9853 17.3223 9.62832 16.7723C9.39401 16.4113 9.17318 16.1988 8.61687 15.7993C8.02002 15.3707 7.71605 15.1054 7.31407 14.6627C6.47188 13.7349 5.89326 12.5463 5.63554 11.2147C5.53618 10.7014 5.55115 9.25543 5.66111 8.74257C6.10396 6.67741 7.31911 5.00097 9.0793 4.02676C9.99787 3.51842 10.9424 3.2388 12.0351 3.15187C12.3906 3.1236 12.4069 3.12672 12.4069 3.22344C12.4069 3.36822 12.4566 3.44776 13.012 4.19184C13.5271 4.88193 13.5968 5.04965 13.4488 5.24257C13.3003 5.43602 13.2156 5.44072 12.2854 5.30699C11.307 5.16634 11.1762 5.17834 11.0666 5.41893C10.9804 5.6082 10.6566 7.97588 10.6958 8.12992C10.7509 8.34636 10.9116 8.40685 11.7588 8.53002C12.1968 8.59372 12.6087 8.65929 12.674 8.67571C12.9181 8.73696 13.0183 9.09362 12.8496 9.29993C12.804 9.35566 12.462 9.62942 12.0896 9.90831C11.4088 10.4181 11.3514 10.4788 11.3514 10.6889C11.3514 10.8183 12.8679 12.8797 13.025 12.9638C13.2322 13.0748 13.3556 13.0183 14.071 12.4848C14.4618 12.1933 14.8292 11.9428 14.8875 11.9281C15.0463 11.888 15.2525 11.9747 15.3314 12.1147C15.3937 12.2253 15.3893 12.3273 15.291 13.0469C15.2304 13.4913 15.1881 13.9391 15.1971 14.0421C15.2246 14.3578 15.3136 14.3921 16.5846 14.5768C17.918 14.7706 18.1272 14.7796 18.2586 14.6481C18.3756 14.531 18.3784 14.5191 18.5216 13.5188C18.6287 12.7707 18.6488 12.6938 18.7636 12.5948C18.8883 12.4872 19.0438 12.4593 19.195 12.5173C19.2387 12.5341 19.502 12.8527 19.78 13.2253C20.0581 13.598 20.3287 13.9407 20.3814 13.9868C20.605 14.1828 20.7294 14.1231 21.8578 13.2778C22.924 12.4791 23.0466 12.3543 22.9894 12.1262C22.9756 12.071 22.7289 11.7125 22.4412 11.3295C22.1535 10.9465 21.9041 10.5887 21.8868 10.5343C21.8428 10.3955 21.9271 10.2024 22.0737 10.1063C22.1915 10.029 22.2444 10.0313 23.1055 10.1513C24.0341 10.2805 24.1671 10.2764 24.3014 10.1145C24.3577 10.0466 24.7321 7.71585 24.7352 7.41319C24.7359 7.35526 24.6878 7.25167 24.6284 7.18302C24.5288 7.06777 24.4489 7.04766 23.592 6.92165C23.0198 6.83755 22.6376 6.75921 22.596 6.71754C22.4847 6.60622 22.4364 6.36732 22.4993 6.23982C22.5301 6.17747 22.8463 5.90601 23.202 5.63657C23.9228 5.09069 24.0647 4.95004 24.0647 4.78151C24.0647 4.70753 23.8039 4.31598 23.3391 3.69214C22.4242 2.46414 22.4149 2.45425 22.1877 2.45425C22.0337 2.45425 21.906 2.53024 21.2972 2.98429C20.9063 3.27576 20.5396 3.52615 20.4821 3.54059C20.3174 3.58212 20.1131 3.45673 20.0554 3.27874C20.0153 3.15509 20.0282 2.95487 20.114 2.36727C20.2524 1.41999 20.2527 1.33776 20.1188 1.18199C20.0165 1.06299 19.9429 1.04658 18.7155 0.868729C18.0031 0.765476 17.398 0.680367 17.3709 0.679599C17.3438 0.678783 17.2738 0.711665 17.2154 0.752611ZM19.351 1.80204C19.3616 1.8126 19.3341 2.06629 19.29 2.36578C19.1758 3.14155 19.184 3.39587 19.3328 3.68959C19.6292 4.27489 20.3583 4.52921 20.9217 4.24383C21.0012 4.20356 21.2992 3.99763 21.5837 3.78618C21.8683 3.57472 22.1077 3.40993 22.1158 3.42001C22.3093 3.66218 23.0182 4.63116 23.0335 4.67446C23.0454 4.70816 22.854 4.88135 22.5959 5.07039C21.8393 5.62462 21.6544 5.88878 21.6541 6.41623C21.6539 6.90461 21.9375 7.33812 22.3779 7.52221C22.4728 7.56191 22.8412 7.63713 23.1965 7.68935C23.5519 7.74163 23.8487 7.7904 23.8561 7.79779C23.8634 7.80513 23.8167 8.15574 23.7522 8.57687C23.6877 8.99804 23.6345 9.35518 23.6339 9.37059C23.6334 9.386 23.3576 9.35753 23.0212 9.30732C22.6848 9.25711 22.299 9.22644 22.1638 9.23921C21.4404 9.30747 20.9441 9.98233 21.0923 10.6964C21.1357 10.9054 21.2284 11.0659 21.5739 11.5293C21.8092 11.845 22.0018 12.1113 22.0018 12.1212C22.0018 12.131 21.7125 12.3563 21.3588 12.622L20.7159 13.105L20.2914 12.5452C19.7432 11.8223 19.5533 11.6942 19.0311 11.6958C18.5958 11.6972 18.3605 11.8018 18.0953 12.1118C17.891 12.3505 17.81 12.6101 17.7283 13.2879C17.6958 13.557 17.6536 13.8025 17.6345 13.8335C17.6083 13.8758 17.4078 13.8628 16.8263 13.7807C15.9353 13.655 16.0132 13.7401 16.1249 13.0148C16.2328 12.3144 16.2203 12.0626 16.0629 11.7611C15.8245 11.3046 15.3733 11.0579 14.871 11.1094C14.5562 11.1416 14.4179 11.2153 13.8059 11.6763L13.3051 12.0535L12.832 11.4219C12.5718 11.0745 12.3589 10.7752 12.3589 10.7569C12.3589 10.7385 12.5958 10.5443 12.8854 10.3255C13.1749 10.1065 13.4669 9.84798 13.5341 9.75082C13.939 9.16624 13.7637 8.35558 13.1553 7.99882C12.9969 7.90594 12.7834 7.8527 12.2574 7.77484C11.8778 7.71863 11.5607 7.66741 11.5527 7.66103C11.5291 7.64207 11.7468 6.12961 11.7785 6.09265C11.7945 6.07407 12.0989 6.10186 12.455 6.15442C13.3183 6.28182 13.622 6.22326 13.9859 5.85921C14.2073 5.63763 14.2896 5.44548 14.315 5.09093C14.3442 4.68262 14.2595 4.48749 13.7749 3.84728C13.5729 3.58048 13.4146 3.34282 13.423 3.31916C13.4377 3.27773 14.6392 2.35825 14.6786 2.35825C14.6892 2.35825 14.8843 2.60651 15.112 2.90989C15.3398 3.21331 15.6069 3.5141 15.7056 3.57837C16.2152 3.91012 16.8164 3.83691 17.2625 3.38881C17.4786 3.1717 17.5579 2.93797 17.6609 2.21424C17.7042 1.91062 17.7467 1.63859 17.7554 1.6097C17.7664 1.57336 18.0113 1.59189 18.5515 1.66999C18.9807 1.73205 19.3404 1.79148 19.351 1.80204ZM1.48928 3.15249C1.36604 3.3253 1.27321 3.47296 1.28294 3.48059C1.45436 3.61437 4.04273 5.44548 4.08145 5.46036C4.12995 5.47898 4.6155 4.86421 4.57822 4.83138C4.46678 4.73322 1.77953 2.83827 1.75175 2.83827C1.73064 2.83827 1.61253 2.97969 1.48928 3.15249ZM17.0299 4.54202C16.0381 4.75784 15.2219 5.39963 14.7866 6.30597C14.5326 6.83472 14.4548 7.17688 14.4562 7.75852C14.4584 8.63226 14.7747 9.38475 15.4073 10.0213C15.7308 10.3469 15.871 10.4482 16.248 10.6287C16.8421 10.9132 17.1173 10.9753 17.756 10.9692C18.1851 10.9651 18.3555 10.9408 18.6676 10.8391C19.5589 10.5487 20.2283 9.96093 20.6395 9.10749C21.2467 7.84723 20.9283 6.26176 19.8764 5.30843C19.516 4.98177 18.8484 4.64 18.3797 4.54212C17.9692 4.45643 17.4235 4.45639 17.0299 4.54202ZM9.15558 5.45397C8.01018 6.28787 7.20148 7.54698 6.91996 8.93458C6.47389 11.1332 7.37582 13.4055 9.21655 14.7206C9.42764 14.8714 9.92466 15.1517 10.321 15.3434C10.9815 15.663 11.0683 15.7203 11.3604 16.0301C11.7272 16.4191 11.9574 16.8555 12.0306 17.3006C12.1249 17.8734 12.0697 17.815 12.5176 17.815H12.9143L12.8812 17.491C12.836 17.0492 12.7964 16.8833 12.6485 16.5174C12.4798 16.1 12.2244 15.7235 11.8868 15.3945C11.5192 15.0361 11.3444 14.9222 10.6845 14.6108C9.96664 14.272 9.57219 14.0138 9.12943 13.593C8.31828 12.822 7.78672 11.7478 7.65488 10.6132C7.45867 8.92441 8.19978 7.18437 9.54038 6.1863C9.71851 6.05372 9.86421 5.92785 9.86421 5.90659C9.86421 5.8715 9.48185 5.23839 9.46065 5.23839C9.45571 5.23839 9.3184 5.33541 9.15558 5.45397ZM18.274 5.35787C19.1419 5.58406 19.8342 6.27064 20.0654 7.13449C20.2777 7.92768 20.0187 8.83935 19.4073 9.45114C18.4481 10.4109 16.9451 10.405 15.9783 9.43775C15.0139 8.47275 15.0211 6.96432 15.9948 6.01109C16.6293 5.38989 17.4712 5.14863 18.274 5.35787ZM2.20377 7.22291C1.35476 7.4383 0.646849 7.62805 0.630586 7.64457C0.597963 7.67774 0.742175 8.31199 0.796146 8.37272C0.821669 8.40142 3.68364 7.72463 3.99466 7.61639C4.0671 7.59114 3.87856 6.8206 3.80147 6.82689C3.77177 6.82934 3.05278 7.00757 2.20377 7.22291ZM5.08488 12.2435C5.12768 12.3869 5.1627 12.5089 5.1627 12.5147C5.1627 12.5205 5.04938 12.5516 4.91083 12.5838C3.9299 12.8123 3.14081 13.7101 3.02562 14.7288C2.92871 15.5857 3.41091 16.5712 4.14468 17.0162C5.3084 17.7218 6.74236 17.4203 7.48966 16.3129L7.64495 16.0827L7.78312 16.1953C7.85906 16.2573 8.06459 16.4088 8.23984 16.5321C8.61903 16.799 8.90491 17.1119 9.04802 17.4164L9.15241 17.6386L8.71848 18.0727L8.28455 18.5069L7.80044 18.1792C7.53413 17.9989 7.23453 17.8307 7.13465 17.8053C6.79743 17.7197 6.41891 17.9038 6.24793 18.2366C6.21109 18.3084 6.13097 18.6101 6.06995 18.9071L5.95893 19.4471H5.47146H4.98395L4.9032 19.0404C4.72949 18.1651 4.58672 17.9313 4.15514 17.815C3.87636 17.7399 3.6883 17.8081 3.13927 18.1832L2.66505 18.5073L2.2966 18.1387L1.92816 17.77L2.25433 17.2922C2.43376 17.0293 2.59937 16.7316 2.6224 16.6306C2.71436 16.2273 2.45477 15.8053 2.03854 15.6817C1.90839 15.643 1.61896 15.575 1.3954 15.5306L0.988908 15.4498V14.959V14.4683L1.52824 14.3608C1.82491 14.3017 2.12456 14.2238 2.19417 14.1878C2.50265 14.0282 2.69872 13.6217 2.62436 13.2958C2.60244 13.1997 2.44134 12.9112 2.26642 12.6549C2.09151 12.3986 1.9484 12.1744 1.9484 12.1566C1.9484 12.1388 2.10936 11.9644 2.30605 11.7689L2.66365 11.4134L3.16878 11.7558C3.71315 12.1247 3.89204 12.1868 4.18359 12.1077C4.50454 12.0207 4.72699 11.7518 4.80337 11.3587C4.84026 11.169 4.84165 11.1715 4.92388 11.5747C4.9696 11.7991 5.04209 12.1001 5.08488 12.2435ZM5.6245 13.6028C5.90371 14.1542 6.21478 14.6038 6.74111 15.2165L7.00363 15.5221L6.8905 15.7355C6.73497 16.0288 6.36355 16.3494 6.03593 16.473C5.81448 16.5566 5.68932 16.5724 5.37858 16.5558C4.73606 16.5216 4.28472 16.214 4.00003 15.6163C3.86604 15.335 3.85741 15.2843 3.8776 14.8963C3.893 14.5998 3.92985 14.4151 4.00474 14.259C4.24787 13.752 4.8075 13.3667 5.3178 13.3549C5.48701 13.3511 5.50394 13.3647 5.6245 13.6028ZM20.2747 16.207V16.615H21.69H23.1052V16.207V15.7989H21.69H20.2747V16.207ZM19.8438 18.2264C19.7025 18.4007 19.6083 18.5574 19.6321 18.5785C19.6557 18.5995 20.2024 19.0557 20.8468 19.5923L22.0187 20.5679L22.2729 20.2835C22.4128 20.1271 22.5277 19.9835 22.5284 19.9644C22.5292 19.938 20.606 18.31 20.1742 17.9717C20.1097 17.9211 20.0609 17.9588 19.8438 18.2264ZM12.119 19.2311V19.8311H12.5268H12.9346V19.2311V18.6311H12.5268H12.119V19.2311ZM17.828 20.4533V21.8953H18.2365H18.645L18.6323 20.4672L18.6196 19.0391L18.2238 19.0252L17.828 19.0112V20.4533ZM14.134 21.8713V22.2793H12.5028H10.8717V21.9033C10.8717 21.6964 10.8861 21.5128 10.9037 21.4952C10.9212 21.4776 11.6552 21.4632 12.5348 21.4632H14.134V21.8713ZM14.134 23.3922C14.134 23.7617 14.0098 24.0343 13.7665 24.1994C13.5931 24.317 13.569 24.3197 12.5545 24.3327C11.39 24.3476 11.3146 24.331 11.0509 24.0007C10.9434 23.8661 10.9055 23.7596 10.8852 23.5359C10.8418 23.0564 10.6968 23.0953 12.5253 23.0953H14.134V23.3922Z" fill="white"/>
</svg>
