<svg width="14" height="17" viewBox="0 0 14 17" fill="none" xmlns="http://www.w3.org/2000/svg">
<path fill-rule="evenodd" clip-rule="evenodd" d="M2.82743 0.398673C2.63967 0.464538 2.47575 0.577871 2.37811 0.709314C2.2275 0.912056 2.19521 1.08039 2.19521 1.66268V2.19777L1.47748 2.19809C0.795005 2.19837 0.751366 2.20206 0.588972 2.2732C0.495076 2.31431 0.362911 2.4088 0.295292 2.48312C0.0895642 2.70918 0.0673397 2.81784 0.0673397 3.59713C0.0673397 4.24612 0.0714267 4.29105 0.137357 4.36991C0.234158 4.48569 0.407158 4.48569 0.503959 4.36991C0.56972 4.29127 0.573976 4.24583 0.573976 3.62166C0.573976 2.64843 0.547665 2.67436 1.5349 2.67436H2.19521V2.90687C2.19521 3.34943 2.37277 3.65559 2.71685 3.80629C3.04163 3.94857 3.47687 3.88785 3.72671 3.66538C3.90704 3.50483 3.99364 3.29313 4.01184 2.96826L4.02832 2.67436H4.96942H5.91055V2.90687C5.91055 3.20954 5.98053 3.42279 6.1359 3.59354C6.56181 4.06162 7.39435 3.94453 7.65368 3.38012C7.68357 3.31502 7.71589 3.13042 7.72576 2.96826L7.74366 2.67436H8.68016H9.61666L9.63456 2.96826C9.64442 3.13042 9.67674 3.31502 9.70664 3.38012C9.96597 3.94453 10.7985 4.06162 11.2244 3.59354C11.3798 3.42279 11.4498 3.20954 11.4498 2.90687V2.67436H12.1101C12.6342 2.67436 12.7908 2.6843 12.8695 2.72256C13.0851 2.82744 13.071 2.46018 13.071 7.98916V13.0212L13.1492 13.0903C13.253 13.182 13.4101 13.1801 13.5042 13.0858L13.5776 13.0123V7.96019C13.5776 2.34764 13.5945 2.75211 13.3497 2.48312C13.2821 2.4088 13.1499 2.31431 13.056 2.2732C12.8937 2.20209 12.8499 2.19837 12.1701 2.19809L11.455 2.19777L11.444 1.60203C11.4316 0.937823 11.4008 0.822139 11.1811 0.61549C10.9892 0.434926 10.8235 0.372302 10.5378 0.372302C10.2521 0.372302 10.0865 0.434926 9.89453 0.61549C9.67485 0.822139 9.64405 0.937823 9.63169 1.60203L9.62061 2.19777H8.68016H7.73971L7.72863 1.60203C7.71626 0.937823 7.68546 0.822139 7.46578 0.61549C7.27384 0.434926 7.1082 0.372302 6.82249 0.372302C6.53678 0.372302 6.37115 0.434926 6.1792 0.61549C5.95952 0.822139 5.92872 0.937823 5.91635 1.60203L5.90528 2.19777H4.96482H4.02437L4.01329 1.60203C4.00093 0.937823 3.97013 0.822139 3.75045 0.61549C3.51473 0.393748 3.11145 0.299002 2.82743 0.398673ZM3.27502 0.872181C3.32089 0.894041 3.3931 0.960287 3.43546 1.01938C3.51149 1.12554 3.51247 1.13933 3.51247 2.10817C3.51247 3.17011 3.50135 3.2469 3.33251 3.35099C3.20892 3.42715 2.96956 3.42152 2.85921 3.33987C2.71019 3.22962 2.69688 3.11578 2.7082 2.04936L2.71874 1.05897L2.80318 0.973568C2.94287 0.832243 3.11391 0.795482 3.27502 0.872181ZM6.99036 0.872181C7.03622 0.894041 7.10844 0.960287 7.15079 1.01938C7.22682 1.12554 7.2278 1.13933 7.2278 2.10817C7.2278 3.17011 7.21669 3.2469 7.04784 3.35099C6.93642 3.41965 6.69259 3.42089 6.59001 3.35331C6.42921 3.24738 6.41718 3.16077 6.41718 2.10817C6.41718 1.13933 6.41816 1.12554 6.49419 1.01938C6.62055 0.843045 6.81064 0.786649 6.99036 0.872181ZM10.7057 0.872181C10.7516 0.894041 10.8238 0.960287 10.8661 1.01938C10.9422 1.12554 10.9431 1.13933 10.9431 2.10817C10.9431 3.16077 10.9311 3.24738 10.7703 3.35331C10.6677 3.42089 10.4239 3.41965 10.3125 3.35099C10.1436 3.2469 10.1325 3.17011 10.1325 2.10817C10.1325 1.13933 10.1335 1.12554 10.2095 1.01938C10.3359 0.843045 10.526 0.786649 10.7057 0.872181ZM0.213082 5.12038C0.172517 5.13614 0.123103 5.1775 0.103311 5.2123C0.078283 5.25633 0.0673397 6.89151 0.0673397 10.5939C0.0673397 16.5979 0.0439669 16.0952 0.335925 16.3699C0.628456 16.6451 0.050486 16.6226 6.82249 16.6226C13.5945 16.6226 13.0165 16.6451 13.3091 16.3699C13.5661 16.1281 13.5776 16.0668 13.5776 14.9467C13.5776 14.3777 13.5641 13.9574 13.5446 13.9231C13.4665 13.7858 13.1506 13.7954 13.093 13.9368C13.0809 13.9664 13.071 14.4119 13.071 14.9269C13.071 15.7016 13.0622 15.8792 13.0198 15.9564C12.908 16.1598 13.3589 16.146 6.82249 16.146C1.57205 16.146 0.862995 16.1403 0.775516 16.0978C0.559621 15.9927 0.573976 16.3875 0.573976 10.5591C0.573976 5.55379 0.570632 5.25128 0.514868 5.18926C0.444108 5.11059 0.314511 5.08101 0.213082 5.12038ZM4.30532 5.15129C4.26769 5.16546 3.9273 5.52932 3.54888 5.95984C3.17049 6.39033 2.85279 6.73497 2.84293 6.72569C2.83307 6.71641 2.74788 6.59816 2.65365 6.46293C2.49626 6.23703 2.47214 6.21622 2.35757 6.20726C2.20632 6.19544 2.09388 6.28453 2.09388 6.41619C2.09388 6.47043 2.1992 6.66631 2.36845 6.92691C2.66679 7.38628 2.74265 7.44855 2.90927 7.3709C2.9855 7.33538 3.49828 6.7743 4.41394 5.72453C4.66581 5.43578 4.69587 5.35162 4.58731 5.23911C4.49595 5.14436 4.40155 5.11497 4.30532 5.15129ZM5.47126 6.04016C4.76214 6.24306 4.66034 7.11735 5.31032 7.42205L5.48473 7.5038H8.30288C10.425 7.5038 11.1554 7.49421 11.2601 7.46498C11.4429 7.41389 11.6919 7.17959 11.7463 7.00764C11.8425 6.70269 11.7377 6.35331 11.4985 6.18168C11.2567 6.00823 11.295 6.01026 8.3117 6.01322C6.79601 6.01471 5.5178 6.02685 5.47126 6.04016ZM11.1227 6.52403C11.3011 6.61344 11.3374 6.81812 11.198 6.94921L11.1151 7.02721H8.33004H5.54502L5.45457 6.92611C5.38442 6.84767 5.36865 6.80385 5.38422 6.73055C5.408 6.61884 5.46042 6.55326 5.55472 6.51732C5.66874 6.47383 11.0354 6.48034 11.1227 6.52403ZM4.30532 8.29678C4.26769 8.31096 3.9273 8.67482 3.54888 9.10534C3.17049 9.53582 2.85279 9.88046 2.84293 9.87118C2.83307 9.86191 2.74788 9.74365 2.65365 9.60842C2.49626 9.38252 2.47214 9.36171 2.35757 9.35275C2.20632 9.34093 2.09388 9.43002 2.09388 9.56169C2.09388 9.61592 2.1992 9.8118 2.36845 10.0724C2.66699 10.5321 2.74235 10.5939 2.91011 10.5164C2.98361 10.4825 3.60552 9.79985 4.49767 8.77395C4.66571 8.58074 4.68705 8.48799 4.58731 8.3846C4.49595 8.28986 4.40155 8.26047 4.30532 8.29678ZM5.5559 9.17717C5.26381 9.24081 5.07487 9.36555 4.96688 9.56601C4.76464 9.94156 4.92605 10.4085 5.31812 10.5818C5.46997 10.649 5.4847 10.6493 8.33358 10.6486C11.0504 10.6479 11.2033 10.6449 11.3316 10.5889C11.6137 10.4658 11.7881 10.2063 11.7868 9.9116C11.7855 9.62396 11.6294 9.38913 11.3443 9.24606L11.1965 9.17187L8.40995 9.16716C6.87738 9.16459 5.59305 9.16907 5.5559 9.17717ZM11.1994 9.73761C11.3059 9.85409 11.3053 9.99373 11.198 10.0947L11.1151 10.1727H8.32703C5.59603 10.1727 5.53766 10.1714 5.4723 10.11C5.38381 10.0267 5.35845 9.91976 5.40178 9.81259C5.47562 9.62993 5.40776 9.63384 8.38756 9.64147L11.1179 9.64846L11.1994 9.73761ZM4.29573 11.4653C4.27141 11.4744 3.94615 11.8272 3.57293 12.2491C3.1997 12.6711 2.88376 13.0278 2.8708 13.0417C2.85786 13.0556 2.77339 12.9529 2.6831 12.8134C2.47379 12.4901 2.35595 12.4299 2.18288 12.558C2.03623 12.6665 2.06268 12.7717 2.34565 13.2056C2.64332 13.6621 2.68955 13.7075 2.84222 13.6938C2.9447 13.6845 3.0312 13.5983 3.77626 12.7622C4.22784 12.2554 4.612 11.8067 4.62994 11.7651C4.70934 11.5809 4.49629 11.3898 4.29573 11.4653ZM5.31947 12.3977C5.02846 12.5313 4.83408 12.8736 4.88123 13.1695C4.93 13.4755 5.18791 13.7295 5.51449 13.7933C5.63916 13.8176 6.53523 13.8257 8.44525 13.8195L11.1965 13.8107L11.3443 13.7365C11.6294 13.5934 11.7855 13.3586 11.7868 13.0709C11.7881 12.7762 11.6137 12.5168 11.3316 12.3936C11.2032 12.3376 11.0518 12.3347 8.32551 12.3352C5.54813 12.3358 5.45018 12.3378 5.31947 12.3977ZM11.198 12.8878C11.3053 12.9888 11.3059 13.1285 11.1994 13.2449L11.1179 13.3341L8.39631 13.3426C6.06463 13.3499 5.65773 13.3444 5.556 13.3044C5.36108 13.2278 5.32001 13.0159 5.4723 12.8726C5.53766 12.8111 5.59603 12.8098 8.32703 12.8098H11.1151L11.198 12.8878Z" fill="white"/>
</svg>
