<svg width="22" height="22" viewBox="0 0 22 22" fill="none" xmlns="http://www.w3.org/2000/svg">
<path fill-rule="evenodd" clip-rule="evenodd" d="M11 19.25C15.5563 19.25 19.25 15.5563 19.25 11C19.25 6.44365 15.5563 2.75 11 2.75C6.44365 2.75 2.75 6.44365 2.75 11C2.75 15.5563 6.44365 19.25 11 19.25ZM15.4349 8.89018C15.7885 8.46591 15.7311 7.83534 15.3069 7.48178C14.8826 7.12821 14.252 7.18554 13.8984 7.60982L10.7172 11.4274C10.3704 11.8434 10.1755 12.0738 10.0199 12.2153L10.014 12.2207L10.0076 12.2159C9.83976 12.089 9.62479 11.8772 9.24183 11.4943L8.04044 10.2929C7.64992 9.90237 7.01675 9.90237 6.62623 10.2929C6.2357 10.6834 6.2357 11.3166 6.62623 11.7071L7.82762 12.9085L7.86844 12.9493L7.86846 12.9493C8.19495 13.276 8.50903 13.5902 8.80127 13.8111C9.12863 14.0587 9.55735 14.2915 10.1068 14.2665C10.6562 14.2416 11.0621 13.971 11.3657 13.6948C11.6367 13.4483 11.9211 13.1069 12.2166 12.7521L12.2536 12.7077L15.4349 8.89018Z" fill="#EDEFF3"/>
</svg>
